# xmcd CD database file
#
# Track frame offsets:
#	150
#	37847
#	73442
#	113570
#	145277
#	170695
#	203252
#	235165
#
# Disc length: 3547 seconds
#
# Revision: 0
# Processed by: cddbd v1.5.1PL0 Copyright (c) Steve Scherf et al.
# Submitted via: CDex 1.51
#
DISCID=690dd908
DTITLE=Hayakawa - Gwoh-in
DYEAR=2000
DGENRE=Jazz
TTITLE0=No Shoes
TTITLE1=Dromaeos
TTITLE2=A Notion of Ammonite
TTITLE3=Pug Bug
TTITLE4=294
TTITLE5=San Noh
TTITLE6=Boninite
TTITLE7=Alu Gara
EXTD=YEAR: 2000
EXTT0=
EXTT1=
EXTT2=
EXTT3=
EXTT4=
EXTT5=
EXTT6=
EXTT7=
PLAYORDER=
